<svg width="23" height="24" viewBox="0 0 23 24" fill="none" xmlns="http://www.w3.org/2000/svg">
<path d="M10.5 2.61102e-08C8.56695 2.61102e-08 7.00012 1.56333 7 3.5V4.73958H5.83333C4.76642 4.69665 3.12888 5.39362 2.51568 7.10944L1.16667 7.07292C0.522317 7.07292 -0.000116647 7.59407 1.95362e-08 8.23958C1.95362e-08 8.8851 0.522317 9.40683 1.16667 9.40566H2.33333V10.5723H1.16667C0.522317 10.5723 -0.000116647 11.0938 1.95362e-08 11.739C1.95362e-08 12.3853 0.522317 12.9057 1.16667 12.9057H2.33333V14.0723H1.16667C0.522317 14.0723 -0.000116647 14.5938 1.95362e-08 15.239C1.95362e-08 15.8853 0.522317 16.4068 1.16667 16.4057H2.33333V17.5723H1.16667C0.522317 17.5723 -0.000116647 18.0938 1.95362e-08 18.739C1.95362e-08 19.3853 0.522317 19.9068 1.16667 19.9057H2.33333C2.33333 21.8388 3.90028 23.4068 5.83333 23.4057H14C15.9331 23.4057 17.5 21.8388 17.5 19.9057V18.739L18.6667 18.7028C20.5997 18.7028 22.1666 17.1395 22.1667 15.2028V3.5C22.1667 1.56345 20.5996 -0.000233307 18.6667 2.61102e-08H10.5ZM18.6667 2.33333C19.311 2.33333 19.8335 2.85448 19.8333 3.5V15.1667C19.8333 15.8118 19.311 16.3333 18.6667 16.3333L17.5 16.3695V8.23958C17.5 6.30653 15.9331 4.73958 14 4.73958H9.33333V3.5364C9.33333 2.891 9.85565 2.36973 10.5 2.36973L18.6667 2.33333ZM5.83333 7.07292H14C14.6444 7.07292 15.1667 7.59523 15.1667 8.23958V18.7028V19.9057C15.1667 20.5508 14.6444 21.0735 14 21.0723H5.83333C5.18898 21.0723 4.66667 20.5508 4.66667 19.9057V18.7028V17.5723V8.23958C4.66667 7.91688 4.78368 7.61204 4.99485 7.4011C5.2059 7.18994 5.51122 7.07292 5.83333 7.07292Z" fill="#2A392A"/>
</svg>
