<svg width="21" height="23" viewBox="0 0 21 23" fill="none" xmlns="http://www.w3.org/2000/svg">
<path d="M11.7023 0.470577C11.0276 -0.156859 9.97236 -0.156859 9.29773 0.470577L0.82159 8.35391C0.29715 8.84168 0 9.52033 0 10.2303V19.8178C0 21.2438 1.17525 22.4 2.625 22.4H5.25C6.69975 22.4 7.875 21.2438 7.875 19.8178V15.514C7.875 15.0387 8.26676 14.6533 8.75 14.6533H12.25C12.7332 14.6533 13.125 15.0387 13.125 15.514V19.8178C13.125 21.2438 14.3003 22.4 15.75 22.4H18.375C19.8247 22.4 21 21.2438 21 19.8178V10.2303C21 9.52033 20.7029 8.84168 20.1784 8.35391L11.7023 0.470577Z" fill="#2A392A"/>
</svg>
