<svg width="24" height="24" viewBox="0 0 24 24" fill="none" xmlns="http://www.w3.org/2000/svg">
<path d="M12.0142 1.9989C10.6352 1.9989 9.50615 2.87491 9.15515 4.1419C8.25015 4.3929 7.40415 5.2319 7.18915 5.9999L6.01416 5.9989C3.80516 5.9989 2.01416 7.78989 2.01416 9.99889V17.9989C2.01416 20.2079 3.80516 21.9989 6.01416 21.9989H18.0142C20.2232 21.9989 22.0142 20.2079 22.0142 17.9989V9.99889C22.0142 7.78989 20.2232 5.9989 18.0142 5.9989L16.8732 6.0089C16.4982 5.10691 15.7862 4.3749 14.8812 4.1239C14.5302 2.8569 13.3932 1.9989 12.0142 1.9989ZM12.0142 3.9989C12.5662 3.9989 13.0142 4.4469 13.0142 4.9989C13.0142 5.5509 13.4622 5.9989 14.0142 5.9989C14.5662 5.9989 15.0142 6.44689 15.0142 6.99889C15.0142 7.55089 14.5662 7.99889 14.0142 7.99889H10.0142C9.46216 7.99889 9.01416 7.55089 9.01416 6.99889C9.01416 6.44689 9.46216 5.9989 10.0142 5.9989C10.5662 5.9989 11.0142 5.5509 11.0142 4.9989C11.0142 4.4469 11.4622 3.9989 12.0142 3.9989ZM6.01416 7.99889L7.18915 7.9919C7.60015 9.2249 8.74616 9.99889 10.0142 9.99889H14.0142C15.2822 9.99889 16.3552 9.2789 16.8652 8.00091L18.0142 7.99889C19.1192 7.99889 20.0142 8.89389 20.0142 9.99889V17.9989C20.0142 19.1039 19.1192 19.9989 18.0142 19.9989H6.01416C4.90916 19.9989 4.01416 19.1039 4.01416 17.9989V9.99889C4.01416 8.89389 4.90916 7.99889 6.01416 7.99889Z" fill="#515C58" fill-opacity="0.8"/>
</svg>
